<?xml version="1.0" encoding="UTF-8"?>
<svg width="246px" height="70px" viewBox="0 0 246 70" version="1.1" xmlns="http://www.w3.org/2000/svg" xmlns:xlink="http://www.w3.org/1999/xlink">
    <!-- Generator: Sketch 42 (36781) - http://www.bohemiancoding.com/sketch -->
    <title>Group</title>
    <desc>Created with Sketch.</desc>
    <defs>
        <linearGradient x1="0%" y1="0%" x2="100%" y2="104.875004%" id="linearGradient-1">
            <stop stop-color="#FB89AD" offset="0%"></stop>
            <stop stop-color="#EFA686" offset="100%"></stop>
        </linearGradient>
    </defs>
    <g id="Final" stroke="none" stroke-width="1" fill="none" fill-rule="evenodd">
        <g id="Flo_Logo_2017" transform="translate(-34.000000, -306.000000)">
            <g id="Group" transform="translate(34.000000, 306.000000)">
                <path d="M90.6912069,18.5913043 L90.6912069,22.653913 L98.297069,22.653913 L98.297069,26.5773913 L90.6912069,26.5773913 L90.6912069,34.2295652 L86,34.2295652 L86,14.5286957 L98.9355172,14.5286957 L98.9355172,18.5913043 L90.6912069,18.5913043 Z M103.626724,34.2295652 L103.626724,14.5286957 L108.401207,14.5286957 L108.401207,30.0834783 L116.007069,30.0834783 L116.007069,34.2295652 L103.626724,34.2295652 Z M139.518621,24.2956522 C139.518621,25.8539208 139.25029,27.2776747 138.713621,28.5669565 C138.176951,29.8562383 137.432102,30.9599954 136.479052,31.8782609 C135.526001,32.7965263 134.392535,33.5060845 133.078621,34.0069565 C131.764706,34.5078286 130.339778,34.7582609 128.803793,34.7582609 C127.267808,34.7582609 125.847506,34.5078286 124.542845,34.0069565 C123.238183,33.5060845 122.109344,32.7965263 121.156293,31.8782609 C120.203242,30.9599954 119.458393,29.8562383 118.921724,28.5669565 C118.385055,27.2776747 118.116724,25.8539208 118.116724,24.2956522 C118.116724,22.7188327 118.385055,21.2950788 118.921724,20.0243478 C119.458393,18.7536168 120.203242,17.6730479 121.156293,16.7826087 C122.109344,15.8921695 123.238183,15.2057995 124.542845,14.7234783 C125.847506,14.241157 127.267808,14 128.803793,14 C130.339778,14 131.764706,14.241157 133.078621,14.7234783 C134.392535,15.2057995 135.526001,15.8921695 136.479052,16.7826087 C137.432102,17.6730479 138.176951,18.7536168 138.713621,20.0243478 C139.25029,21.2950788 139.518621,22.7188327 139.518621,24.2956522 Z M134.438793,24.2956522 C134.438793,23.4423146 134.300001,22.6446414 134.022414,21.9026087 C133.744826,21.160576 133.360836,20.52522 132.870431,19.9965217 C132.380026,19.4678234 131.787848,19.0504363 131.093879,18.7443478 C130.39991,18.4382593 129.636556,18.2852174 128.803793,18.2852174 C127.97103,18.2852174 127.212302,18.4382593 126.527586,18.7443478 C125.84287,19.0504363 125.250692,19.4678234 124.751034,19.9965217 C124.251377,20.52522 123.867386,21.160576 123.599052,21.9026087 C123.330717,22.6446414 123.196552,23.4423146 123.196552,24.2956522 C123.196552,25.1860914 123.335343,26.0069528 123.612931,26.7582609 C123.890518,27.509569 124.274509,28.1542002 124.764914,28.6921739 C125.255318,29.2301476 125.84287,29.6521724 126.527586,29.9582609 C127.212302,30.2643494 127.97103,30.4173913 128.803793,30.4173913 C129.636556,30.4173913 130.395284,30.2643494 131.08,29.9582609 C131.764716,29.6521724 132.356894,29.2301476 132.856552,28.6921739 C133.356209,28.1542002 133.744826,27.509569 134.022414,26.7582609 C134.300001,26.0069528 134.438793,25.1860914 134.438793,24.2956522 Z M154.81362,34.2295652 L150.566552,26.4104348 L148.956552,26.4104348 L148.956552,34.2295652 L144.293103,34.2295652 L144.293103,14.5286957 L151.787931,14.5286957 C152.731729,14.5286957 153.65238,14.626086 154.549914,14.8208696 C155.447447,15.0156531 156.252439,15.3449252 156.964914,15.8086957 C157.677388,16.2724661 158.246434,16.8846339 158.672069,17.6452174 C159.097703,18.4058009 159.310517,19.3518784 159.310517,20.4834783 C159.310517,21.8191371 158.949659,22.9414447 158.227931,23.8504348 C157.506203,24.7594248 156.506903,25.4086937 155.23,25.7982609 L160.365345,34.2295652 L154.81362,34.2295652 Z M154.61931,20.5669565 C154.61931,20.1031861 154.522156,19.7275377 154.327845,19.44 C154.133533,19.1524623 153.883708,18.9298559 153.578362,18.7721739 C153.273015,18.614492 152.930663,18.5078264 152.551293,18.4521739 C152.171923,18.3965215 151.806438,18.3686957 151.454827,18.3686957 L148.928793,18.3686957 L148.928793,22.96 L151.177241,22.96 C151.565864,22.96 151.963733,22.9275366 152.370862,22.8626087 C152.77799,22.7976808 153.148102,22.68174 153.481207,22.5147826 C153.814312,22.3478253 154.087269,22.1066682 154.300086,21.7913043 C154.512903,21.4759405 154.61931,21.0678286 154.61931,20.5669565 Z M182.155862,34.2295652 L182.266896,20.2886957 L182.18362,20.2886957 L177.076034,34.2295652 L173.745,34.2295652 L168.776207,20.2886957 L168.692931,20.2886957 L168.803965,34.2295652 L164.334827,34.2295652 L164.334827,14.5286957 L171.080172,14.5286957 L175.54931,27.1617391 L175.660345,27.1617391 L179.935172,14.5286957 L186.791551,14.5286957 L186.791551,34.2295652 L182.155862,34.2295652 Z M192.482069,34.2295652 L192.482069,14.5286957 L197.256551,14.5286957 L197.256551,34.2295652 L192.482069,34.2295652 Z M215.438448,34.2295652 L207.527241,21.346087 L207.443965,21.346087 L207.555,34.2295652 L202.947069,34.2295652 L202.947069,14.5286957 L208.36,14.5286957 L216.243448,27.3843478 L216.326724,27.3843478 L216.215689,14.5286957 L220.82362,14.5286957 L220.82362,34.2295652 L215.438448,34.2295652 Z M239.838275,34.2295652 L238.311551,30.3617391 L230.705689,30.3617391 L229.262241,34.2295652 L224.099137,34.2295652 L232.343448,14.5286957 L236.951379,14.5286957 L245.112413,34.2295652 L239.838275,34.2295652 Z M234.564137,19.7878261 L232.065862,26.5495652 L237.006896,26.5495652 L234.564137,19.7878261 Z" id="FLORMINA" fill="#4A4A4A"></path>
                <path d="M97.009069,50.194087 C97.009069,51.2292226 96.8175364,52.122431 96.4344655,52.8737391 C96.0513946,53.6250472 95.5461928,54.2427802 94.9188448,54.7269565 C94.2914969,55.2111329 93.5836591,55.5673032 92.7953103,55.7954783 C92.0069616,56.0236533 91.2075213,56.1377391 90.3969655,56.1377391 L86,56.1377391 L86,44.3172174 L90.2637241,44.3172174 C91.0964869,44.3172174 91.9181339,44.4146077 92.7286897,44.6093913 C93.5392454,44.8041749 94.2609624,45.1269543 94.8938621,45.5777391 C95.5267618,46.028524 96.0375153,46.632344 96.4261379,47.3892174 C96.8147606,48.1460907 97.009069,49.0810379 97.009069,50.194087 Z M94.0444483,50.194087 C94.0444483,49.5262575 93.9361907,48.9725239 93.7196724,48.5328696 C93.5031541,48.0932152 93.2144673,47.74261 92.8536034,47.4810435 C92.4927396,47.219477 92.0819161,47.033044 91.6211207,46.9217391 C91.1603253,46.8104342 90.6856576,46.7547826 90.1971034,46.7547826 L88.7814138,46.7547826 L88.7814138,53.6667826 L90.1304828,53.6667826 C90.6412439,53.6667826 91.1325666,53.6083484 91.6044655,53.4914783 C92.0763644,53.3746081 92.4927396,53.18261 92.8536034,52.9154783 C93.2144673,52.6483465 93.5031541,52.2921761 93.7196724,51.8469565 C93.9361907,51.4017369 94.0444483,50.8507859 94.0444483,50.194087 Z M104.886966,56.1377391 L104.886966,44.3172174 L112.814828,44.3172174 L112.814828,46.738087 L107.635069,46.738087 L107.635069,48.9586087 L112.53169,48.9586087 L112.53169,51.245913 L107.635069,51.245913 L107.635069,53.7001739 L113.114621,53.7001739 L113.114621,56.1377391 L104.886966,56.1377391 Z M127.221552,47.3892174 C126.977275,47.0775637 126.658054,46.829914 126.26388,46.6462609 C125.869705,46.4626078 125.489416,46.3707826 125.123,46.3707826 C124.934241,46.3707826 124.742708,46.3874781 124.548397,46.4208696 C124.354086,46.454261 124.179208,46.5182604 124.023759,46.6128696 C123.86831,46.7074787 123.737846,46.8299123 123.632363,46.9801739 C123.526879,47.1304355 123.474138,47.3224336 123.474138,47.5561739 C123.474138,47.7565227 123.515776,47.9234776 123.599052,48.0570435 C123.682328,48.1906094 123.804465,48.3074778 123.965466,48.4076522 C124.126467,48.5078266 124.317999,48.5996518 124.540069,48.6831304 C124.76214,48.7666091 125.011965,48.8528691 125.289552,48.941913 C125.689278,49.0754789 126.105653,49.2229557 126.53869,49.3843478 C126.971727,49.5457399 127.365895,49.7599987 127.721207,50.0271304 C128.076519,50.2942622 128.370758,50.6253893 128.603932,51.0205217 C128.837105,51.4156541 128.95369,51.908171 128.95369,52.498087 C128.95369,53.1770469 128.828778,53.7641714 128.578949,54.2594783 C128.32912,54.7547851 127.993244,55.1638245 127.571311,55.4866087 C127.149378,55.8093929 126.666383,56.0486949 126.122311,56.2045217 C125.578239,56.3603486 125.017521,56.4382609 124.440138,56.4382609 C123.596272,56.4382609 122.780177,56.2907841 121.991828,55.9958261 C121.203479,55.7008681 120.548382,55.2806984 120.026518,54.7353043 L121.891897,52.832 C122.180588,53.1881757 122.560877,53.4859118 123.032776,53.7252174 C123.504675,53.9645229 123.973791,54.0841739 124.440138,54.0841739 C124.651105,54.0841739 124.856517,54.0619133 125.05638,54.0173913 C125.256243,53.9728693 125.43112,53.9005222 125.581018,53.8003478 C125.730915,53.7001734 125.850276,53.5666095 125.939104,53.3996522 C126.027932,53.2326948 126.072345,53.032349 126.072345,52.7986087 C126.072345,52.5759989 126.016829,52.3867834 125.905794,52.2309565 C125.794759,52.0751297 125.636536,51.933218 125.431121,51.8052174 C125.225706,51.6772168 124.97033,51.5603484 124.664983,51.4546087 C124.359637,51.348869 124.012658,51.2347832 123.624035,51.1123478 C123.246516,50.9899124 122.87733,50.8452182 122.516466,50.6782609 C122.155602,50.5113035 121.833605,50.2970448 121.550466,50.0354783 C121.267327,49.7739117 121.039708,49.4566975 120.867604,49.0838261 C120.6955,48.7109547 120.609449,48.257394 120.609449,47.7231304 C120.609449,47.0664315 120.742689,46.5043502 121.009173,46.0368696 C121.275657,45.569389 121.625412,45.1853928 122.058449,44.8848696 C122.491485,44.5843463 122.980032,44.3645224 123.524104,44.2253913 C124.068176,44.0862602 124.617791,44.0166957 125.172966,44.0166957 C125.839176,44.0166957 126.519256,44.1391292 127.213225,44.384 C127.907194,44.6288708 128.515101,44.9906063 129.036966,45.4692174 L127.221552,47.3892174 Z M136.831587,56.1377391 L136.831587,44.3172174 L139.696277,44.3172174 L139.696277,56.1377391 L136.831587,56.1377391 Z M158.599898,55.4198261 C158.022515,55.7203493 157.347988,55.9652164 156.576294,56.1544348 C155.804601,56.3436531 154.963523,56.4382609 154.053035,56.4382609 C153.109238,56.4382609 152.240401,56.2880015 151.446501,55.9874783 C150.6526,55.686955 149.969745,55.2640027 149.397915,54.7186087 C148.826084,54.1732147 148.379175,53.5193082 148.057173,52.7568696 C147.735172,51.994431 147.574173,51.1457438 147.574173,50.2107826 C147.574173,49.2646909 147.737948,48.407656 148.065501,47.6396522 C148.393054,46.8716483 148.845515,46.2177418 149.422898,45.677913 C150.00028,45.1380843 150.677583,44.7234797 151.454829,44.434087 C152.232074,44.1446942 153.070376,44 153.96976,44 C154.902454,44 155.768514,44.1419116 156.567966,44.4257391 C157.367419,44.7095666 158.016964,45.0907802 158.516622,45.5693913 L156.717863,47.6229565 C156.440275,47.3001723 156.073865,47.0358271 155.618622,46.829913 C155.163378,46.623999 154.647073,46.5210435 154.069691,46.5210435 C153.570033,46.5210435 153.109244,46.6128686 152.687311,46.7965217 C152.265378,46.9801748 151.898968,47.2361723 151.58807,47.5645217 C151.277172,47.8928712 151.035674,48.2824325 150.86357,48.7332174 C150.691466,49.1840023 150.605415,49.6765191 150.605415,50.2107826 C150.605415,50.7561766 150.683138,51.2570412 150.838587,51.7133913 C150.994036,52.1697414 151.22443,52.5620853 151.529777,52.8904348 C151.835123,53.2187843 152.212637,53.4747817 152.662329,53.6584348 C153.11202,53.8420879 153.62555,53.933913 154.202932,53.933913 C154.536037,53.933913 154.852482,53.9088698 155.152277,53.8587826 C155.452071,53.8086954 155.729655,53.7280006 155.985035,53.6166957 L155.985035,51.4629565 L153.736587,51.4629565 L153.736587,49.1589565 L158.599898,49.1589565 L158.599898,55.4198261 Z M174.422312,56.1377391 L169.675587,48.4076522 L169.625622,48.4076522 L169.692243,56.1377391 L166.927484,56.1377391 L166.927484,44.3172174 L170.175243,44.3172174 L174.905312,52.0306087 L174.955277,52.0306087 L174.888656,44.3172174 L177.653415,44.3172174 L177.653415,56.1377391 L174.422312,56.1377391 Z M192.309967,47.3892174 C192.06569,47.0775637 191.746469,46.829914 191.352295,46.6462609 C190.95812,46.4626078 190.577831,46.3707826 190.211415,46.3707826 C190.022656,46.3707826 189.831123,46.3874781 189.636812,46.4208696 C189.4425,46.454261 189.267623,46.5182604 189.112174,46.6128696 C188.956725,46.7074787 188.826261,46.8299123 188.720777,46.9801739 C188.615294,47.1304355 188.562553,47.3224336 188.562553,47.5561739 C188.562553,47.7565227 188.604191,47.9234776 188.687467,48.0570435 C188.770743,48.1906094 188.89288,48.3074778 189.053881,48.4076522 C189.214882,48.5078266 189.406414,48.5996518 189.628484,48.6831304 C189.850554,48.7666091 190.100379,48.8528691 190.377967,48.941913 C190.777693,49.0754789 191.194068,49.2229557 191.627105,49.3843478 C192.060142,49.5457399 192.45431,49.7599987 192.809622,50.0271304 C193.164934,50.2942622 193.459173,50.6253893 193.692346,51.0205217 C193.92552,51.4156541 194.042105,51.908171 194.042105,52.498087 C194.042105,53.1770469 193.917192,53.7641714 193.667363,54.2594783 C193.417535,54.7547851 193.081659,55.1638245 192.659726,55.4866087 C192.237792,55.8093929 191.754797,56.0486949 191.210726,56.2045217 C190.666654,56.3603486 190.105935,56.4382609 189.528553,56.4382609 C188.684687,56.4382609 187.868592,56.2907841 187.080243,55.9958261 C186.291894,55.7008681 185.636797,55.2806984 185.114932,54.7353043 L186.980312,52.832 C187.269003,53.1881757 187.649292,53.4859118 188.121191,53.7252174 C188.59309,53.9645229 189.062206,54.0841739 189.528553,54.0841739 C189.73952,54.0841739 189.944931,54.0619133 190.144795,54.0173913 C190.344658,53.9728693 190.519535,53.9005222 190.669432,53.8003478 C190.81933,53.7001734 190.938691,53.5666095 191.027519,53.3996522 C191.116347,53.2326948 191.16076,53.032349 191.16076,52.7986087 C191.16076,52.5759989 191.105243,52.3867834 190.994208,52.2309565 C190.883173,52.0751297 190.724951,51.933218 190.519536,51.8052174 C190.314121,51.6772168 190.058744,51.5603484 189.753398,51.4546087 C189.448052,51.348869 189.101072,51.2347832 188.71245,51.1123478 C188.334931,50.9899124 187.965745,50.8452182 187.604881,50.6782609 C187.244017,50.5113035 186.92202,50.2970448 186.638881,50.0354783 C186.355741,49.7739117 186.128123,49.4566975 185.956019,49.0838261 C185.783914,48.7109547 185.697863,48.257394 185.697863,47.7231304 C185.697863,47.0664315 185.831104,46.5043502 186.097588,46.0368696 C186.364072,45.569389 186.713827,45.1853928 187.146863,44.8848696 C187.5799,44.5843463 188.068447,44.3645224 188.612519,44.2253913 C189.15659,44.0862602 189.706206,44.0166957 190.261381,44.0166957 C190.927591,44.0166957 191.60767,44.1391292 192.301639,44.384 C192.995608,44.6288708 193.603516,44.9906063 194.125381,45.4692174 L192.309967,47.3892174 Z" id="DESIGNS" fill="#9B9B9B"></path>
                <path d="M36.0862069,46.4161434 L36.1046483,46.42344 L36.1545859,33.3913043 L44.5512708,36.8419892 L44.4283032,49.7168348 L63.8627096,57.4063862 L64.1741648,34.2625494 L8.30970421,12.1588312 L8.30970421,35.4259005 L27.7586207,43.1211931 L27.7586207,51.9921493 L8.30970421,44.2968567 L8.30970421,61.3260583 L5.46655703e-14,61.3260583 L-7.10542736e-15,0 L64.2929123,25.4385776 L64.5195123,8.6002184 L72.8292165,8.6002184 L72.1724138,69.5652174 L36.0862069,55.2870996 L36.0862069,46.4161434 Z" id="Combined-Shape" fill="url(#linearGradient-1)"></path>
            </g>
        </g>
    </g>
</svg>